<?xml version="1.0" standalone="no"?>
<!DOCTYPE svg PUBLIC "-//W3C//DTD SVG 20010904//EN"
 "http://www.w3.org/TR/2001/REC-SVG-20010904/DTD/svg10.dtd">
<svg version="1.0" xmlns="http://www.w3.org/2000/svg"
 width="512.000000pt" height="512.000000pt" viewBox="0 0 512.000000 512.000000"
 preserveAspectRatio="xMidYMid meet">
<metadata>
Created by potrace 1.14, written by Peter Selinger 2001-2017
</metadata>
<g transform="translate(0.000000,512.000000) scale(0.100000,-0.100000)"
fill="#000000" stroke="none">
<path d="M4373 5075 c-58 -16 -116 -50 -150 -86 -12 -13 -172 -233 -356 -488
l-335 -464 -972 0 c-747 0 -986 -3 -1032 -12 -160 -34 -307 -153 -376 -306
-35 -77 -44 -137 -46 -301 -1 -86 -4 -160 -7 -163 -3 -3 -136 -7 -295 -8 -272
-3 -292 -5 -347 -26 -111 -44 -197 -133 -240 -249 -20 -56 -20 -76 -22 -772
l-1 -715 23 -22 c29 -30 83 -31 109 -2 18 20 19 48 20 728 0 695 1 707 21 753
12 26 39 63 60 84 68 66 76 68 393 70 l285 2 0 -86 0 -87 -275 -2 c-286 -3
-310 -6 -327 -47 -5 -12 -9 -472 -9 -1118 l1 -1097 -75 2 -74 2 -1 237 c-1
217 -2 238 -19 257 -24 27 -76 27 -107 2 -24 -19 -24 -20 -25 -253 -1 -128 -2
-236 -3 -239 0 -3 -33 -6 -72 -6 -60 -1 -74 -5 -96 -24 -25 -24 -25 -24 -21
-174 3 -143 5 -153 34 -215 52 -109 149 -187 264 -208 37 -8 664 -11 1938 -10
1850 0 1883 1 1907 20 48 38 22 127 -37 129 -13 0 -864 1 -1893 1 -1139 1
-1884 5 -1905 11 -46 12 -95 50 -127 98 -21 32 -26 54 -31 129 l-5 90 39 1
c22 0 474 1 1006 2 l967 2 6 -47 c4 -29 19 -64 38 -90 38 -53 50 -64 107 -89
41 -19 64 -21 246 -20 216 0 256 7 312 52 42 34 72 83 85 140 9 38 16 49 32
50 25 0 1944 0 1968 0 14 -1 17 -11 17 -67 0 -86 -15 -135 -56 -183 -57 -66
-87 -75 -269 -77 -150 -3 -161 -4 -177 -24 -27 -34 -23 -84 8 -109 25 -19 37
-20 193 -17 161 3 168 4 231 33 82 39 144 100 184 183 29 62 31 72 34 215 4
149 4 150 -21 173 -21 20 -36 24 -84 24 -32 0 -65 2 -73 4 -13 3 -15 137 -15
1121 -1 1057 -2 1121 -19 1175 -38 117 -129 214 -243 259 -55 22 -72 23 -358
25 -165 2 -305 3 -310 3 -7 1 -10 53 -10 150 2 162 -2 149 76 251 14 19 98
134 185 255 86 121 176 245 198 275 l40 54 12 -29 c18 -41 17 -121 -1 -158 -9
-18 -92 -137 -185 -266 -94 -128 -170 -240 -170 -247 0 -26 23 -62 47 -73 37
-17 57 -13 85 17 39 41 334 454 356 498 53 105 43 244 -24 344 -13 19 -24 38
-24 41 0 4 37 58 81 121 105 146 121 183 121 278 1 59 -5 87 -25 132 -65 146
-232 226 -384 183z m145 -150 c107 -45 147 -160 88 -257 -50 -84 -143 -203
-157 -202 -13 1 -236 159 -266 187 -9 9 6 37 68 122 85 119 105 138 159 153
50 14 66 14 108 -3z m-293 -490 c72 -52 131 -100 133 -105 2 -5 -21 -42 -51
-82 -30 -40 -206 -284 -392 -543 -186 -258 -347 -481 -358 -495 -10 -14 -53
-72 -94 -130 -42 -58 -79 -109 -83 -114 -5 -4 -35 11 -67 36 -32 24 -95 70
-140 103 -46 32 -83 60 -83 61 0 3 411 572 874 1212 61 83 115 152 121 152 5
0 69 -43 140 -95z m-812 -559 c-4 -6 -86 -121 -182 -254 -297 -412 -321 -446
-322 -472 -2 -35 -6 -182 -9 -338 -3 -127 -2 -133 20 -157 13 -14 34 -25 47
-25 21 0 238 73 415 140 63 23 55 14 345 419 57 79 103 142 104 140 6 -22 3
-926 -4 -963 -23 -130 -124 -251 -247 -295 -19 -7 -60 -15 -90 -18 -89 -8
-128 -47 -108 -106 13 -35 36 -47 90 -47 219 1 427 167 494 395 14 48 18 101
19 265 l1 205 244 0 245 0 0 -1040 c1 -572 -1 -1045 -3 -1051 -4 -16 -3820
-15 -3825 0 -1 6 -3 479 -2 1051 l0 1040 228 3 c125 1 227 -1 228 -5 1 -5 2
-98 4 -208 2 -221 11 -272 68 -380 64 -119 225 -243 342 -262 20 -3 39 -11 43
-17 4 -6 8 -132 8 -281 1 -148 2 -280 3 -292 2 -34 36 -63 73 -63 29 0 65 33
353 319 l320 319 375 0 c206 0 381 1 388 1 6 1 21 10 32 21 28 28 26 81 -2
107 -22 20 -32 21 -435 21 -406 0 -413 -1 -440 -22 -15 -12 -137 -131 -270
-265 -134 -134 -244 -237 -244 -230 -1 8 -2 115 -3 239 -1 173 -5 230 -16 247
-13 21 -49 33 -97 33 -43 0 -147 41 -195 78 -59 45 -104 106 -131 180 -20 55
-20 77 -22 642 0 322 3 603 8 625 13 64 52 140 96 188 45 49 137 102 197 115
61 13 1865 11 1857 -2z m1226 -811 c58 -32 91 -68 117 -131 16 -36 17 -127 18
-1147 1 -610 -1 -1112 -4 -1116 -3 -5 -36 -8 -75 -7 l-70 1 0 1095 c-1 602 -4
1104 -8 1116 -14 40 -44 44 -342 44 -157 0 -285 3 -286 8 -3 21 -5 158 -2 163
1 4 137 6 300 5 l298 -1 54 -30z m-1486 -134 c44 -31 73 -57 65 -60 -7 -2 -48
-17 -91 -32 l-78 -29 2 95 c1 67 5 93 13 88 6 -3 46 -31 89 -62z m-347 -2423
c10 -10 -16 -58 -40 -73 -20 -13 -54 -16 -183 -16 -87 -1 -170 0 -185 0 -49 2
-114 85 -72 93 27 5 474 1 480 -4z"/>
<path d="M1721 3293 c-12 -8 -26 -25 -30 -37 -11 -28 6 -74 32 -88 30 -16 873
-16 904 0 46 25 47 96 1 126 -35 23 -874 23 -907 -1z"/>
<path d="M1710 2751 c-17 -16 -27 -36 -25 -47 2 -10 4 -22 4 -26 1 -5 10 -17
21 -28 19 -19 33 -20 465 -20 l446 0 23 25 c30 32 26 72 -9 102 l-26 23 -435
0 -436 0 -28 -29z"/>
</g>
</svg>
